<?xml version="1.0" encoding="utf-8"?><svg viewBox="0 0 227 128" xmlns="http://www.w3.org/2000/svg" xmlns:xlink="http://www.w3.org/1999/xlink"><style>:root>svg{display:none}:root>svg:target{display:block}</style><svg viewBox="0 0 53 16" id="arrow-big" xmlns="http://www.w3.org/2000/svg"><path d="M52.707 8.707a1 1 0 000-1.414L46.343.929a1 1 0 10-1.414 1.414L50.586 8l-5.657 5.657a1 1 0 001.414 1.414l6.364-6.364zM0 9h52V7H0v2z"/></svg><svg viewBox="0 0 23 16" id="arrow-left" xmlns="http://www.w3.org/2000/svg"><path d="M21.285 9a1 1 0 000-2v2zM.45 7.293a1 1 0 000 1.414l6.364 6.364a1 1 0 001.414-1.414L2.57 8l5.657-5.657A1 1 0 106.813.93L.449 7.293zM21.285 7H1.156v2h20.13V7z"/></svg><svg viewBox="0 0 44 40" id="batteries" xmlns="http://www.w3.org/2000/svg"><path d="M38.5 2.583c0-1.012-.82-1.833-1.833-1.833h-7.334c-1.012 0-1.833.82-1.833 1.833V6.25h11V2.583zM16.5 2.583c0-1.012-.82-1.833-1.833-1.833H7.333C6.321.75 5.5 1.57 5.5 2.583V6.25h11V2.583zM0 8.083v27.5c0 1.013.82 1.834 1.833 1.834H5.5v1.833h3.667v-1.833h25.666v1.833H38.5v-1.833h3.667A1.834 1.834 0 0044 35.583v-27.5H0zM14.667 33.75l3.666-11h-5.5l12.834-11-3.667 11h5.5l-12.833 11z"/></svg><svg viewBox="0 0 225 127" id="brands-1" xmlns="http://www.w3.org/2000/svg"><path d="M52.28 61.48a4.634 4.634 0 00-1.32 3.71l-.024-.023a5.521 5.521 0 01-1.586 4.354 5.481 5.481 0 01-4.338 1.592l.022.023a4.63 4.63 0 00-2.735.595 4.654 4.654 0 00-1.897 2.064 4.674 4.674 0 00.92 5.276 4.637 4.637 0 005.258.92 4.65 4.65 0 002.056-1.906c.473-.833.68-1.792.59-2.746l.024.023a5.52 5.52 0 011.587-4.354 5.48 5.48 0 014.338-1.592l-.024-.023a4.618 4.618 0 004.087-1.796 4.66 4.66 0 00-.618-6.333 4.628 4.628 0 00-4.357-.965 4.63 4.63 0 00-1.98 1.18h-.004zM42.968 68.149l-.024-.023a4.57 4.57 0 003.699-1.323 4.602 4.602 0 001.32-3.711l.025.023a5.52 5.52 0 011.586-4.354 5.482 5.482 0 014.338-1.592l-.024-.023a4.629 4.629 0 002.736-.593 4.652 4.652 0 001.9-2.063 4.673 4.673 0 00-.919-5.277 4.628 4.628 0 00-5.258-.922 4.65 4.65 0 00-2.056 1.906 4.673 4.673 0 00-.59 2.746l-.023-.024a5.519 5.519 0 01-1.586 4.354 5.48 5.48 0 01-4.34 1.592l.024.024a4.568 4.568 0 00-3.7 1.323 4.6 4.6 0 00-1.32 3.71l-.023-.022a5.523 5.523 0 01-1.587 4.353 5.483 5.483 0 01-4.338 1.593l.023.023a4.63 4.63 0 00-2.736.593 4.652 4.652 0 00-1.9 2.063 4.674 4.674 0 00.92 5.277 4.637 4.637 0 005.257.922 4.65 4.65 0 002.056-1.906c.474-.833.68-1.792.591-2.746l.024.023a5.52 5.52 0 011.587-4.354 5.48 5.48 0 014.338-1.592zM34.509 65.606a4.628 4.628 0 001.319-3.71l.024.023a5.521 5.521 0 011.587-4.355 5.48 5.48 0 014.34-1.591l-.024-.023c.95.09 1.906-.118 2.735-.593a4.652 4.652 0 001.898-2.063 4.673 4.673 0 00-.918-5.275 4.626 4.626 0 00-5.256-.922 4.647 4.647 0 00-2.056 1.905 4.67 4.67 0 00-.59 2.745l-.024-.023a5.52 5.52 0 01-1.586 4.354 5.48 5.48 0 01-4.338 1.592l.022.023a4.618 4.618 0 00-4.086 1.797 4.658 4.658 0 00-.682 4.425 4.653 4.653 0 001.3 1.907 4.628 4.628 0 004.358.965 4.63 4.63 0 001.98-1.18h-.003zM73.608 52.972h3.749V71.28h-3.75V52.972zM79.48 65.011a6.663 6.663 0 011.103-3.7 6.628 6.628 0 012.967-2.46 6.6 6.6 0 017.226 1.424 6.669 6.669 0 011.448 7.247 6.642 6.642 0 01-2.44 2.987 6.606 6.606 0 01-3.681 1.122 6.529 6.529 0 01-4.696-1.915 6.575 6.575 0 01-1.927-4.705zm9.496 0a2.892 2.892 0 00-1.829-2.608 2.866 2.866 0 00-3.106.676 2.89 2.89 0 002.062 4.897 2.793 2.793 0 002.084-.85 2.816 2.816 0 00.79-2.115zM107.666 58.74v11.908c0 4.213-3.274 5.994-6.598 5.994a6.37 6.37 0 01-3.386-.685 6.399 6.399 0 01-2.536-2.355l3.198-1.856a2.847 2.847 0 002.849 1.58 2.483 2.483 0 002.054-.66 2.498 2.498 0 00.77-2.023v-1.146a4.44 4.44 0 01-3.649 1.63 6.34 6.34 0 01-4.36-1.935 6.385 6.385 0 01-1.79-4.435c0-1.655.642-3.246 1.79-4.435a6.34 6.34 0 014.36-1.935 4.44 4.44 0 013.649 1.63v-1.279l3.649.003zm-3.648 6.02a3.037 3.037 0 00-1.781-2.898 3.02 3.02 0 00-3.344.578 3.043 3.043 0 00-.711 3.33 3.038 3.038 0 001.116 1.383c.501.34 1.092.52 1.697.52a2.814 2.814 0 002.155-.784 2.845 2.845 0 00.868-2.13zM109.789 65.011a6.661 6.661 0 011.103-3.7 6.63 6.63 0 012.967-2.46 6.599 6.599 0 017.226 1.424 6.67 6.67 0 011.448 7.247 6.65 6.65 0 01-2.439 2.987 6.606 6.606 0 01-3.682 1.122 6.526 6.526 0 01-4.696-1.915 6.571 6.571 0 01-1.927-4.705zm9.497 0a2.88 2.88 0 00-1.83-2.608 2.863 2.863 0 00-3.106.676 2.89 2.89 0 00.472 4.417c.471.313 1.024.48 1.59.48a2.794 2.794 0 002.084-.85 2.823 2.823 0 00.79-2.115zM124.783 55.38a2.264 2.264 0 011.388-2.085 2.242 2.242 0 012.451.49 2.259 2.259 0 01.488 2.46 2.244 2.244 0 01-2.078 1.394 2.269 2.269 0 01-1.584-.669 2.287 2.287 0 01-.665-1.59zm.378 3.361h3.75v12.54h-3.755l.005-12.54zM145.098 65.011a6.302 6.302 0 01-3.588 6.025 6.26 6.26 0 01-2.385.595 4.675 4.675 0 01-3.722-1.53v6.195h-3.749V58.741h3.749v1.178a4.694 4.694 0 013.722-1.53 6.258 6.258 0 014.359 2.064 6.304 6.304 0 011.614 4.558zm-3.749 0a2.983 2.983 0 00-1.886-2.703 2.965 2.965 0 00-3.216.694 2.994 2.994 0 00-.611 3.243 2.97 2.97 0 002.741 1.825 2.845 2.845 0 002.169-.861 2.868 2.868 0 00.803-2.198zM156.666 67.518c0 2.884-2.498 4.113-5.197 4.113a5.455 5.455 0 01-3.143-.664 5.486 5.486 0 01-2.23-2.32l3.248-1.856a2.058 2.058 0 002.12 1.48c.899 0 1.35-.277 1.35-.777 0-1.38-6.149-.652-6.149-4.991 0-2.735 2.3-4.113 4.899-4.113a5.447 5.447 0 012.801.673 5.475 5.475 0 012.071 2.01l-3.198 1.73a1.823 1.823 0 00-1.674-1.103c-.65 0-1.05.253-1.05.702.005 1.43 6.152.476 6.152 5.116zM170.36 58.74v12.541h-3.749v-1.179a4.257 4.257 0 01-3.572 1.53c-2.524 0-4.67-1.805-4.67-5.193V58.74h3.749v7.147a2.06 2.06 0 00.56 1.645 2.058 2.058 0 001.613.635c1.375 0 2.324-.802 2.324-2.583v-6.84l3.745-.004zM191.855 63.581v7.7h-3.749v-7.374c0-1.254-.599-2.056-1.798-2.056-1.25 0-1.95.878-1.95 2.357v7.072h-3.748v-7.373c0-1.254-.6-2.056-1.8-2.056-1.249 0-1.949.878-1.949 2.357v7.072h-3.748V58.74h3.748v1.152a3.825 3.825 0 013.349-1.504 3.71 3.71 0 013.273 1.655 4.115 4.115 0 013.624-1.654c2.869.001 4.748 2.057 4.748 5.192zM195.026 58.664a2.786 2.786 0 002.781-2.792 2.786 2.786 0 00-2.781-2.792 2.787 2.787 0 00-2.782 2.792 2.787 2.787 0 002.782 2.792z"/></svg><svg viewBox="0 0 227 128" id="brands-2" xmlns="http://www.w3.org/2000/svg"><path d="M71.197 54.03h3.807v18.478h-3.807V54.029zM77.136 66.177a6.75 6.75 0 011.125-3.733 6.673 6.673 0 012.996-2.473 6.614 6.614 0 013.855-.375 6.646 6.646 0 013.41 1.848 6.73 6.73 0 011.814 3.447 6.762 6.762 0 01-.394 3.882 6.701 6.701 0 01-2.47 3.005 6.625 6.625 0 01-3.712 1.113 6.528 6.528 0 01-2.552-.498 6.57 6.57 0 01-2.161-1.455 6.63 6.63 0 01-1.432-2.186 6.67 6.67 0 01-.48-2.575zm9.542 0a2.931 2.931 0 00-.524-1.598 2.897 2.897 0 00-1.313-1.04 2.873 2.873 0 00-3.127.68 2.936 2.936 0 00-.594 3.168c.221.528.592.98 1.066 1.296.474.317 1.03.487 1.599.487a2.8 2.8 0 002.081-.866 2.842 2.842 0 00.787-2.127h.025zM105.447 59.847v12.034c0 4.245-3.3 6.049-6.637 6.049a6.303 6.303 0 01-3.41-.681 6.364 6.364 0 01-2.542-2.389l3.21-1.867c.261.529.675.965 1.187 1.25a2.862 2.862 0 001.682.349 2.52 2.52 0 002.055-.68 2.564 2.564 0 00.787-2.031v-1.164a4.452 4.452 0 01-3.667 1.637 6.32 6.32 0 01-4.487-1.873 6.42 6.42 0 01-1.858-4.521 6.42 6.42 0 011.859-4.521 6.32 6.32 0 014.486-1.873 4.452 4.452 0 013.667 1.637v-1.279l3.668-.077zm-3.668 6.075a3.08 3.08 0 00-.45-1.739 3.052 3.052 0 00-1.34-1.186 3.025 3.025 0 00-3.36.58 3.091 3.091 0 00-.72 3.359 3.064 3.064 0 001.12 1.4 3.028 3.028 0 001.705.527 2.822 2.822 0 002.171-.79 2.87 2.87 0 00.874-2.151zM107.591 66.177c0-1.328.391-2.626 1.124-3.73a6.671 6.671 0 012.992-2.473 6.614 6.614 0 013.851-.38c1.292.26 2.479.9 3.41 1.84a6.728 6.728 0 011.821 3.442 6.76 6.76 0 01-.385 3.88 6.702 6.702 0 01-2.459 3.01 6.625 6.625 0 01-3.705 1.125 6.576 6.576 0 01-4.725-1.948 6.656 6.656 0 01-1.924-4.766zm9.543 0a2.935 2.935 0 00-.525-1.6 2.904 2.904 0 00-1.316-1.039 2.873 2.873 0 00-3.128.686 2.938 2.938 0 00-.586 3.172 2.91 2.91 0 001.072 1.294 2.875 2.875 0 001.602.48 2.795 2.795 0 002.081-.866 2.84 2.84 0 00.787-2.127h.013zM122.654 56.459c0-.45.132-.89.38-1.265a2.266 2.266 0 011.014-.838 2.242 2.242 0 012.462.493 2.294 2.294 0 01.489 2.48 2.27 2.27 0 01-.832 1.023c-.371.25-.808.383-1.254.383a2.275 2.275 0 01-1.59-.674c-.423-.425-.663-1-.669-1.602zm.368 3.389h3.807v12.66h-3.807v-12.66zM143.122 66.178a6.423 6.423 0 01-1.64 4.626 6.312 6.312 0 01-4.413 2.088 4.69 4.69 0 01-2.079-.335 4.73 4.73 0 01-1.728-1.213v6.253h-3.806v-17.75h3.806v1.19a4.712 4.712 0 011.729-1.207 4.677 4.677 0 012.078-.328 6.345 6.345 0 014.399 2.074 6.428 6.428 0 011.654 4.601zm-3.806 0a3.031 3.031 0 00-.543-1.657 2.995 2.995 0 00-1.361-1.077 2.972 2.972 0 00-1.725-.139 2.988 2.988 0 00-1.514.847 3.037 3.037 0 00-.607 3.283c.23.547.616 1.013 1.108 1.34.493.327 1.07.5 1.659.497a2.851 2.851 0 002.179-.874 2.898 2.898 0 00.804-2.22zM154.708 68.71c0 2.915-2.538 4.156-5.228 4.156a5.474 5.474 0 01-3.163-.673 5.534 5.534 0 01-2.243-2.345l3.274-1.867c.13.456.411.853.797 1.126.386.272.852.403 1.322.37.901 0 1.358-.282 1.358-.793 0-1.394-6.18-.652-6.18-5.039 0-2.762 2.31-4.143 4.924-4.143a5.474 5.474 0 012.857.658 5.529 5.529 0 012.117 2.04l-3.274 1.74a1.845 1.845 0 00-1.687-1.113c-.66 0-1.054.256-1.054.703 0 1.458 6.18.5 6.18 5.18zM168.502 59.848v12.66h-3.807v-1.19a4.33 4.33 0 01-1.603 1.217 4.297 4.297 0 01-1.975.356c-2.538 0-4.708-1.828-4.708-5.243v-7.8h3.807v7.225a2.103 2.103 0 001.313 2.162c.28.11.581.158.882.14 1.37 0 2.335-.819 2.335-2.558v-6.97h3.756zM190.074 64.733v7.775h-3.807v-7.443c0-1.279-.596-2.072-1.802-2.072-1.205 0-1.967.883-1.967 2.379v7.136h-3.806v-7.443c0-1.279-.597-2.072-1.802-2.072-1.206 0-1.967.883-1.967 2.379v7.136h-3.807v-12.66h3.807v1.163a3.889 3.889 0 011.498-1.184 3.856 3.856 0 011.877-.325 3.697 3.697 0 011.862.393 3.73 3.73 0 011.425 1.27 4.139 4.139 0 011.608-1.304 4.11 4.11 0 012.034-.359c2.969 0 4.847 2.072 4.847 5.23zM48.52 50.704V45.27H31.516v37.34H48.52v-5.435a13.083 13.083 0 01-9.287-3.876 13.287 13.287 0 01-3.847-9.36c0-3.51 1.384-6.876 3.847-9.358a13.083 13.083 0 019.287-3.877zM48.52 50.704v26.471c3.484 0 6.824-1.394 9.287-3.876a13.287 13.287 0 003.847-9.36c0-3.51-1.384-6.876-3.847-9.358a13.083 13.083 0 00-9.287-3.877zM193.272 59.77a2.803 2.803 0 002.792-2.813 2.803 2.803 0 00-2.792-2.813c-1.541 0-2.791 1.26-2.791 2.813 0 1.554 1.25 2.814 2.791 2.814z"/></svg><svg viewBox="0 0 226 127" id="brands-3" xmlns="http://www.w3.org/2000/svg"><path d="M81.25 56.032h3.807v15.365H81.25V56.03zm5.317 9.563c0-3.8 2.335-6.067 5.939-6.067s5.939 2.267 5.939 6.067c0 3.8-2.284 6.08-5.94 6.08-3.654 0-5.938-2.216-5.938-6.08zm8.058 0c0-2.09-.825-3.319-2.12-3.319-1.293 0-2.106 1.267-2.106 3.32 0 2.051.8 3.293 2.107 3.293 1.307 0 2.119-1.166 2.119-3.281v-.013zm5.254 6.55h3.654a1.963 1.963 0 002.056 1.14c1.447 0 2.208-.786 2.208-1.926V69.23h-.076a3.6 3.6 0 01-3.464 2.077c-2.78 0-4.62-2.115-4.62-5.75 0-3.636 1.752-5.929 4.67-5.929a3.648 3.648 0 013.503 2.23v-2.116h3.807V71.27c0 2.774-2.45 4.497-6.066 4.497-3.363 0-5.457-1.507-5.672-3.61v-.013zm7.931-6.562c0-1.85-.851-3.015-2.196-3.015-1.345 0-2.17 1.153-2.17 3.015s.813 2.913 2.17 2.913c1.358 0 2.196-1.026 2.196-2.9v-.013zm5.241 0c0-3.8 2.334-6.068 5.938-6.068 3.604 0 5.952 2.267 5.952 6.068 0 3.8-2.284 6.08-5.952 6.08-3.667 0-5.938-2.204-5.938-6.068v-.012zm8.058 0c0-2.09-.825-3.32-2.12-3.32-1.294 0-2.043 1.28-2.043 3.345 0 2.065.8 3.293 2.094 3.293 1.294 0 2.069-1.178 2.069-3.293v-.025zm5.278-8.602a1.94 1.94 0 012.275-1.959 1.94 1.94 0 011.476 2.612 1.945 1.945 0 01-1.771 1.235 1.857 1.857 0 01-1.831-1.12 1.856 1.856 0 01-.149-.742v-.026zm0 2.787h3.807v11.629h-3.807V59.768zm17.627 5.815c0 3.8-1.688 5.966-4.581 5.966a3.633 3.633 0 01-3.554-2.154h-.076v5.726h-3.807V59.743h3.807v2.077h.076a3.64 3.64 0 013.528-2.242c2.919.051 4.657 2.23 4.657 6.03l-.05-.025zm-3.807 0c0-1.85-.851-3.028-2.183-3.028-1.332 0-2.183 1.19-2.195 3.028-.013 1.836.863 3.014 2.195 3.014 1.332 0 2.183-1.152 2.183-2.989v-.025zm10.342-6.08c3.16 0 5.076 1.494 5.165 3.888h-3.465c0-.823-.685-1.343-1.738-1.343-1.054 0-1.523.406-1.523 1.001 0 .596.419.785 1.269.963l2.436.494c2.323.494 3.312 1.431 3.312 3.192 0 2.407-2.195 3.952-5.431 3.952s-5.355-1.545-5.52-3.914h3.667c.115.861.8 1.368 1.917 1.368 1.116 0 1.624-.367 1.624-.975s-.355-.735-1.269-.925l-2.195-.469c-2.272-.468-3.465-1.672-3.465-3.445.026-2.28 2.069-3.762 5.216-3.762v-.026zm18.159 11.869h-3.668v-2.166h-.076a3.315 3.315 0 01-3.375 2.42 4.052 4.052 0 01-4.04-2.67 4.031 4.031 0 01-.224-1.701v-7.512h3.807v6.638c0 1.38.711 2.115 1.891 2.115a1.938 1.938 0 001.861-1.375c.081-.264.104-.542.068-.816v-6.562h3.807l-.051 11.629zm1.84-11.629h3.68v2.242h.076a3.371 3.371 0 013.312-2.457 3.03 3.03 0 013.236 2.533h.076a3.583 3.583 0 013.579-2.533 3.7 3.7 0 012.785 1.129 3.69 3.69 0 011.021 2.823v7.917h-3.806v-6.904c0-1.266-.571-1.85-1.637-1.85a1.67 1.67 0 00-1.259.56 1.659 1.659 0 00-.404 1.316v6.878h-3.616v-6.954c0-1.166-.571-1.8-1.612-1.8a1.704 1.704 0 00-1.622 1.192c-.072.229-.094.47-.066.709v6.853h-3.807l.064-11.654zM70.603 56.728a16.777 16.777 0 00-2.537-4.079 17.165 17.165 0 00-5.616-4.486 17.195 17.195 0 00-20.025 3.415 17.134 17.134 0 00-4.777 13.206c.183 2.413.875 4.76 2.033 6.887a17.147 17.147 0 004.68 5.451c1.237.96 2.605 1.74 4.06 2.319a17.016 17.016 0 006.435 1.266 17.222 17.222 0 0012.138-5.04 17.161 17.161 0 005.03-12.124 16.935 16.935 0 00-1.42-6.815zm-15.76-6.878c1.981 0 3.94.432 5.736 1.266a5.574 5.574 0 01-1.37.393 7.276 7.276 0 00-4.1 2.051 7.253 7.253 0 00-2.055 4.093 3.797 3.797 0 01-1.122 2.289 3.81 3.81 0 01-2.317 1.068 7.276 7.276 0 00-4.1 2.05 7.253 7.253 0 00-2.055 4.093 3.683 3.683 0 01-1.002 2.204 13.659 13.659 0 01.81-13.174 13.695 13.695 0 014.975-4.666 13.725 13.725 0 016.613-1.693l-.013.026zM44.348 72.41c.153-.14.305-.266.457-.418a6.937 6.937 0 002.056-4.091 3.696 3.696 0 011.104-2.306 3.593 3.593 0 012.297-1.09 7.276 7.276 0 004.1-2.05 7.253 7.253 0 002.054-4.093 3.696 3.696 0 011.104-2.42 3.645 3.645 0 012.323-1.05 6.96 6.96 0 003.807-1.812c1.196.99 2.21 2.182 2.994 3.521a1.09 1.09 0 01-.165.178 3.644 3.644 0 01-2.296 1.114 7.252 7.252 0 00-4.105 2.047 7.229 7.229 0 00-2.05 4.097 3.797 3.797 0 01-1.1 2.305 3.81 3.81 0 01-2.313 1.09c-1.558.222-3.001.94-4.117 2.047a7.292 7.292 0 00-2.076 4.097 3.974 3.974 0 01-.622 1.735 13.816 13.816 0 01-3.452-2.9zm10.495 4.89a13.78 13.78 0 01-3.807-.532 7.31 7.31 0 00.812-2.534 3.797 3.797 0 011.096-2.301 3.81 3.81 0 012.305-1.094 7.276 7.276 0 004.107-2.047 7.253 7.253 0 002.06-4.096 3.797 3.797 0 011.096-2.302 3.81 3.81 0 012.305-1.093 7.253 7.253 0 003.249-1.267 13.683 13.683 0 01-2.383 11.84 13.75 13.75 0 01-10.84 5.362v.064z"/></svg><svg viewBox="0 0 225 126" id="brands-4" xmlns="http://www.w3.org/2000/svg"><path d="M86.082 72.212a3.36 3.36 0 01-2.108-.603 1.96 1.96 0 01-.796-1.643v-11.63a.325.325 0 01.367-.365h2.12c.24 0 .353.126.353.364v10.727c0 .477.215.716.657.716.187.007.374-.014.555-.063.253 0 .391.075.404.301l.19 1.568a.324.324 0 01-.17.352.33.33 0 01-.134.037c-.464.153-.95.233-1.438.239zM98.01 70.87a5.967 5.967 0 01-3.787 1.353 5.967 5.967 0 01-3.787-1.354 5.003 5.003 0 01-1.462-3.532c0-1.323.526-2.592 1.462-3.532a5.992 5.992 0 017.573 0 5.078 5.078 0 011.426 3.526c0 1.314-.51 2.577-1.426 3.526v.012zm-5.58-1.657a2.698 2.698 0 003.61 0 2.8 2.8 0 000-3.689 2.697 2.697 0 00-3.61 0 2.8 2.8 0 000 3.689zM111.111 62.777c.24 0 .353.125.353.363v8.996a4.074 4.074 0 01-1.401 3.225 5.32 5.32 0 01-3.673 1.254 5.932 5.932 0 01-3.42-.94 3.769 3.769 0 01-1.654-2.51c0-.25 0-.364.341-.364h2.121a.47.47 0 01.416.289c.138.381.412.698.77.89.437.225.922.337 1.414.327a2.242 2.242 0 001.628-.577 2.136 2.136 0 00.593-1.569v-.79a4.244 4.244 0 01-2.625.816 4.922 4.922 0 01-3.585-1.368 5.004 5.004 0 01-1.419-3.488c0-1.302.509-2.552 1.419-3.488a4.956 4.956 0 013.585-1.355 4.257 4.257 0 012.688.866v-.201a.315.315 0 01.015-.143.327.327 0 01.339-.221l2.095-.012zm-4.897 7.176a2.233 2.233 0 001.729-.74 3.066 3.066 0 000-3.764 2.218 2.218 0 00-1.717-.728 2.283 2.283 0 00-1.754.74 2.65 2.65 0 00-.682 1.883 2.698 2.698 0 00.669 1.869 2.287 2.287 0 001.755.74zM122.357 70.87a5.994 5.994 0 01-7.573 0 5.09 5.09 0 01-1.427-3.532 5.09 5.09 0 011.427-3.532 6.006 6.006 0 017.573 0 5.078 5.078 0 011.426 3.525 5.078 5.078 0 01-1.426 3.526v.012zm-5.592-1.657a2.531 2.531 0 001.818.69 2.541 2.541 0 001.805-.69 2.84 2.84 0 000-3.688 2.54 2.54 0 00-1.805-.69 2.537 2.537 0 00-1.818.69 2.838 2.838 0 000 3.688zM128.34 60.644a1.838 1.838 0 01-2.411 0 1.516 1.516 0 010-2.209 1.874 1.874 0 012.411 0 1.516 1.516 0 010 2.209zm.265 11.568a3.41 3.41 0 01-2.108-.603 1.983 1.983 0 01-.783-1.643V63.14a.33.33 0 01.219-.348.33.33 0 01.147-.016h2.121c.24 0 .353.126.353.364v5.922c0 .477.215.716.644.716.191.006.383-.015.568-.063.252 0 .391.075.404.3l.189 1.57a.325.325 0 01-.303.389 4.805 4.805 0 01-1.451.238zM138.16 62.476a4.976 4.976 0 013.61 1.355 5.13 5.13 0 011.389 3.507 5.13 5.13 0 01-1.389 3.507 4.926 4.926 0 01-3.61 1.367 4.361 4.361 0 01-2.638-.816v4.53c0 .238-.126.351-.366.351h-2.121a.305.305 0 01-.345-.207.307.307 0 01-.008-.144V65.638a.65.65 0 00-.443-.715.661.661 0 00-.302-.026h-.416c-.278 0-.417-.1-.417-.3v-1.481a.402.402 0 01.291-.414 3.803 3.803 0 011.363-.226c.463-.04.928.057 1.335.28.407.224.737.563.949.974a4.26 4.26 0 013.118-1.254zm-1.969 6.737a2.405 2.405 0 001.742.74 2.428 2.428 0 001.742-.74 2.7 2.7 0 00.694-1.92 2.666 2.666 0 00-.694-1.919 2.425 2.425 0 00-2.689-.547c-.3.127-.57.313-.795.547a2.766 2.766 0 00-.669 1.92c-.026.7.213 1.385.669 1.92zM149.115 72.212a6.11 6.11 0 01-3.243-.778 3.067 3.067 0 01-1.465-2.22c0-.252.089-.377.367-.377h1.855a.48.48 0 01.416.276c.266.677.96 1.016 2.07 1.016.388.018.774-.06 1.124-.226a.732.732 0 00.429-.615c0-.326-.202-.552-.606-.702a6.854 6.854 0 00-1.477-.314 14.137 14.137 0 01-1.767-.314 2.912 2.912 0 01-1.477-.84 2.678 2.678 0 01.543-3.89 5.225 5.225 0 013.055-.803 5.607 5.607 0 012.979.74 2.797 2.797 0 011.388 1.97c0 .251-.114.377-.341.377h-1.868a.39.39 0 01-.379-.226 1.253 1.253 0 00-.656-.665 2.23 2.23 0 00-1.085-.25c-.37-.02-.739.053-1.073.213a.629.629 0 00-.404.577.8.8 0 00.606.74c.484.181.988.308 1.502.376.59.078 1.176.186 1.754.326.566.128 1.08.42 1.477.841a2.37 2.37 0 01.618 1.719c.011.434-.091.863-.297 1.245a2.522 2.522 0 01-.876.938 5.545 5.545 0 01-3.169.866zM166.799 71.585a.336.336 0 01-.063.255.34.34 0 01-.227.133c-.461.15-.942.23-1.427.239a2.817 2.817 0 01-2.524-1.092 4.587 4.587 0 01-3.219 1.092 3.934 3.934 0 01-2.953-1.142 4.116 4.116 0 01-1.124-3.024v-4.905c0-.239.114-.364.354-.364h2.12c.24 0 .354.125.354.364v4.529a2.212 2.212 0 00.543 1.543 1.89 1.89 0 001.451.59 2.108 2.108 0 001.515-.552 1.999 1.999 0 00.568-1.493V63.14c0-.239.113-.364.353-.364h2.146c.24 0 .353.125.353.364v5.91c0 .489.215.727.631.727a2.01 2.01 0 00.581-.063.328.328 0 01.416.301l.152 1.569zM186.855 71.584a.318.318 0 01-.053.263.317.317 0 01-.237.126 4.932 4.932 0 01-1.452.239 3.387 3.387 0 01-2.108-.603 1.953 1.953 0 01-.845-1.644v-2.948a2.212 2.212 0 00-.531-1.543 1.786 1.786 0 00-1.413-.59 1.585 1.585 0 00-1.262.552c-.334.42-.504.946-.48 1.48v4.63c0 .239-.114.364-.353.364h-2.134a.33.33 0 01-.272-.093.326.326 0 01-.094-.27v-4.53a2.31 2.31 0 00-.492-1.543 1.643 1.643 0 00-1.262-.59 1.842 1.842 0 00-1.388.552 2.065 2.065 0 00-.518 1.48v4.63a.33.33 0 01-.094.271.326.326 0 01-.272.093h-2.057c-.24 0-.354-.125-.354-.363v-5.91a.649.649 0 00-.443-.714.658.658 0 00-.301-.026h-.417c-.278 0-.417-.1-.417-.301v-1.48a.402.402 0 01.291-.415 3.8 3.8 0 011.363-.226 2.372 2.372 0 012.247 1.154 4.286 4.286 0 013.206-1.154 3.638 3.638 0 012.991 1.33 4.167 4.167 0 013.307-1.33 4.009 4.009 0 012.991 1.142 4.078 4.078 0 011.124 3.024v2.421c0 .477.214.716.618.716.196.009.392-.013.581-.063.261 0 .399.1.416.3l.114 1.57zM38.85 61.146a17.168 17.168 0 016.127-9.386 17.345 17.345 0 0110.642-3.644c3.857 0 7.603 1.283 10.642 3.644a17.167 17.167 0 016.126 9.386h-1.514a12.282 12.282 0 00-7.157 2.17 3.606 3.606 0 01-.379.238h-.177a3.615 3.615 0 01-.378-.238 12.892 12.892 0 00-7.163-2.171c-2.552 0-5.045.756-7.163 2.171a3.615 3.615 0 01-.379.238h-.176a3.606 3.606 0 01-.379-.238 12.283 12.283 0 00-7.157-2.17h-1.514zm29.296 7.866a4.27 4.27 0 012.727-.89h2.032v-4.028h-2.032a8.087 8.087 0 00-4.835 1.53 4.612 4.612 0 01-5.452 0 8.62 8.62 0 00-9.808 0 4.612 4.612 0 01-5.452 0 8.087 8.087 0 00-4.898-1.53h-2.095v4.028h2.032a4.27 4.27 0 012.727.89 8.593 8.593 0 009.794 0 4.296 4.296 0 012.727-.89 4.245 4.245 0 012.726.89 8.618 8.618 0 009.807 0zm0 7.202a4.27 4.27 0 012.727-.89h2.032v-4.028h-2.032a8.086 8.086 0 00-4.835 1.53 4.612 4.612 0 01-5.452 0 8.62 8.62 0 00-9.808 0 4.612 4.612 0 01-5.452 0 8.087 8.087 0 00-4.898-1.53h-2.095v4.027h2.032a4.27 4.27 0 012.727.891 8.593 8.593 0 009.794 0 4.296 4.296 0 012.727-.89 4.245 4.245 0 012.726.89 8.618 8.618 0 009.807 0z"/></svg><svg viewBox="0 0 226 127" id="brands-5" xmlns="http://www.w3.org/2000/svg"><path d="M78.456 56.272h4.073v16.467h-4.073V56.272zm5.698 10.273c0-4.079 2.538-6.524 6.345-6.524s6.345 2.445 6.345 6.524c0 4.079-2.45 6.55-6.345 6.55-3.896 0-6.345-2.382-6.345-6.55zm8.654 0c0-2.242-.875-3.56-2.271-3.56s-2.26 1.267-2.26 3.56.864 3.547 2.26 3.547 2.296-1.254 2.296-3.534l-.025-.013zm5.66 7.043h3.934a2.101 2.101 0 002.208 1.267c1.56 0 2.373-.836 2.373-2.078v-2.28h.012a3.9 3.9 0 01-3.807 2.217c-2.982 0-4.961-2.267-4.961-6.169 0-3.901 1.89-6.334 5.076-6.334a3.899 3.899 0 013.807 2.395h-.115v-2.293h4.036V72.65c0 2.977-2.64 4.839-6.523 4.839-3.528-.013-5.786-1.622-6.015-3.89l-.025-.012zm8.527-7.043c0-1.989-.913-3.243-2.36-3.243-1.447 0-2.335 1.267-2.335 3.243s.876 3.142 2.335 3.142 2.36-1.077 2.36-3.142zm5.647 0c0-4.079 2.538-6.524 6.345-6.524s6.345 2.445 6.345 6.524c0 4.079-2.462 6.55-6.345 6.55-3.883 0-6.319-2.382-6.319-6.55h-.026zm8.655 0c0-2.242-.889-3.56-2.272-3.56-1.383 0-2.259 1.267-2.259 3.56s.863 3.547 2.259 3.547 2.297-1.254 2.297-3.534l-.025-.013zm5.685-9.234a2.077 2.077 0 012.43-2.137 2.083 2.083 0 011.683 1.609 2.076 2.076 0 01-2.032 2.516 2.005 2.005 0 01-2.056-1.976l-.025-.012zm0 2.99h4.124v12.49h-4.061l-.063-12.49zm18.958 6.244c0 4.066-1.827 6.422-4.936 6.422a3.892 3.892 0 01-3.807-2.318h-.076v6.157h-4.074V60.338h4.048v2.23h.077a3.925 3.925 0 013.806-2.407c3.198-.026 5.038 2.318 5.038 6.397l-.076-.013zm-4.149 0c0-1.976-.927-3.255-2.361-3.255-1.434 0-2.335 1.266-2.347 3.255-.013 1.989.913 3.243 2.347 3.243s2.437-1.178 2.437-3.23l-.076-.013zm11.103-6.536c3.414 0 5.533 1.608 5.558 4.193h-3.718c0-.9-.748-1.457-1.865-1.457s-1.65.43-1.65 1.077c0 .646.47.848 1.409 1.038l2.614.532c2.538.532 3.553 1.546 3.553 3.433 0 2.534-2.348 4.256-5.837 4.256-3.49 0-5.762-1.672-5.926-4.218h3.946c.114.925.85 1.47 2.043 1.47s1.751-.38 1.751-1.052c0-.671-.38-.785-1.358-.988l-2.36-.494c-2.449-.52-3.731-1.799-3.731-3.711.077-2.483 2.208-4.067 5.647-4.067l-.076-.012zm19.542 12.768h-3.946v-2.343h-.076a3.573 3.573 0 01-3.642 2.597 4.36 4.36 0 01-3.295-1.348 4.34 4.34 0 01-1.185-3.352v-8.018h4.074v7.144c0 1.47.774 2.268 2.043 2.268a2.08 2.08 0 002.043-2.382v-7.03h4.061l-.077 12.464zm1.967-12.477h3.96v2.407h.088a3.626 3.626 0 013.566-2.635 3.254 3.254 0 012.252.652 3.24 3.24 0 011.225 1.996h.178a3.81 3.81 0 013.807-2.648 3.962 3.962 0 013.874 2.608c.19.523.266 1.08.225 1.636v8.474h-4.099v-7.436c0-1.266-.597-1.976-1.751-1.976a1.776 1.776 0 00-1.79 2.014v7.398h-3.883v-7.474c0-1.266-.622-1.938-1.738-1.938a1.819 1.819 0 00-1.371.609 1.803 1.803 0 00-.444 1.43v7.373h-4.073l-.026-12.49zM70.398 57.349a12.5 12.5 0 00-2.188-7.065 12.534 12.534 0 00-5.801-4.599 12.559 12.559 0 00-13.786 3.202H32.785v33.366h33.437V66.659a12.504 12.504 0 004.175-9.31zm-6.434 0a6.098 6.098 0 01-1.024 3.396 6.114 6.114 0 01-6.278 2.606 6.12 6.12 0 01-3.135-1.668 6.103 6.103 0 01-1.331-6.655 6.124 6.124 0 019.973-1.988 6.1 6.1 0 011.795 4.309zM59.79 75.83H39.22V55.309h6.27a12.077 12.077 0 00-.191 2.04 12.53 12.53 0 003.68 8.855 12.574 12.574 0 008.87 3.673c.65-.004 1.3-.059 1.941-.165v6.118z"/></svg><svg viewBox="0 0 20 20" id="call" xmlns="http://www.w3.org/2000/svg"><path d="M17.76 13.92c-1.296-1.033-2.612-1.659-3.893-.627l-.764.623c-.56.453-1.6 2.568-5.621-1.743-4.02-4.306-1.628-4.977-1.068-5.425l.77-.625c1.273-1.034.792-2.336-.127-3.676l-.554-.812C5.58.298 4.575-.58 3.298.453l-.69.562A6.01 6.01 0 00.083 5.01c-.46 2.84.993 6.091 4.321 9.659 3.325 3.569 6.58 5.362 9.664 5.33 2.562-.025 4.11-1.307 4.594-1.773l.693-.562c1.273-1.032.482-2.083-.815-3.119l-.78-.625z"/></svg><svg viewBox="0 0 55 39" id="car" xmlns="http://www.w3.org/2000/svg"><path d="M53.834 11.857a1.393 1.393 0 00-1.074-.511h-5.27c-1.3-3.43-2.994-6.79-4.92-8.06-6.661-4.382-24.33-4.382-30.992 0-1.927 1.27-3.614 4.635-4.922 8.06h-5.27c-.418 0-.812.188-1.074.511a1.379 1.379 0 00-.283 1.157l.78 3.782A1.386 1.386 0 002.168 17.9h1.561c-1.507 1.738-2.237 3.927-2.247 6.118-.01 2.706 1.017 5.151 2.896 6.882.02.018.042.03.061.048v5.292c0 1.146.932 2.08 2.08 2.08h4.86c1.148 0 2.08-.934 2.08-2.08v-2.127h27.23v2.127c0 1.146.931 2.08 2.08 2.08h4.86c1.145 0 2.08-.934 2.08-2.08v-5.188c1.993-1.826 2.945-4.338 2.958-6.846.008-2.265-.756-4.535-2.351-6.31h1.665c.658 0 1.227-.46 1.357-1.106l.782-3.78c.08-.406-.021-.83-.285-1.154zM13.861 6.76c5.31-3.495 21.113-3.495 26.42 0 1.032.676 2.358 3.412 3.574 6.761H10.29c1.213-3.348 2.54-6.082 3.571-6.761zm-6.22 17.78a4.09 4.09 0 014.092-4.09 4.09 4.09 0 110 8.18 4.092 4.092 0 01-4.091-4.09zm34.825 4.091a4.092 4.092 0 11.001-8.183 4.092 4.092 0 010 8.183z"/></svg><svg viewBox="0 0 44 49" id="diagnostic" xmlns="http://www.w3.org/2000/svg"><path d="M.253 27.017c.215-.268.536-.425.873-.425h4.282c1.057-2.85 2.434-5.641 3.998-6.695 5.414-3.64 19.772-3.64 25.186 0 1.566 1.055 2.937 3.85 3.999 6.695h4.282c.34 0 .66.157.873.425.214.267.3.62.23.96l-.634 3.142c-.108.536-.57.918-1.103.918H40.97c1.225 1.444 1.819 3.263 1.827 5.082.008 2.248-.827 4.28-2.354 5.717-.017.015-.034.026-.05.04v4.397c0 .952-.757 1.727-1.69 1.727h-3.95c-.932 0-1.69-.775-1.69-1.727v-1.767H10.937v1.767c0 .952-.757 1.727-1.69 1.727h-3.95c-.93 0-1.69-.775-1.69-1.727v-4.31c-1.62-1.517-2.393-3.604-2.403-5.687-.007-1.882.614-3.767 1.91-5.241H1.76c-.535 0-.997-.383-1.103-.92l-.635-3.14a1.18 1.18 0 01.23-.958zm32.483-4.235c-4.315-2.903-17.157-2.903-21.47 0-.838.562-1.916 2.834-2.904 5.617h27.276c-.986-2.782-2.064-5.053-2.902-5.617zm5.054 14.77c0-1.877-1.49-3.397-3.325-3.397-1.837 0-3.324 1.52-3.324 3.397 0 1.878 1.487 3.399 3.324 3.399 1.836 0 3.325-1.521 3.325-3.399zm-28.3 3.399c1.836 0 3.325-1.521 3.325-3.399 0-1.877-1.489-3.397-3.324-3.397-1.838 0-3.325 1.52-3.325 3.397 0 1.878 1.49 3.399 3.325 3.399z"/><mask id="ka" maskUnits="userSpaceOnUse" x="6" y="0" width="25" height="28"><path d="M26.555 14.482a1.76 1.76 0 01-.872 1.378 5.57 5.57 0 01-1.317.546c.254.875.72 2.14 1.548 3.495.787 1.287.796 2.841.025 4.264-1.137 2.096-3.648 3.504-6.248 3.504-1.786 0-3.374-.84-4.47-2.368-1.568-2.183-1.915-5.404-.93-8.616.915-2.977-.308-4.565-1.117-5.248a3.61 3.61 0 01-2.542 1.05c-2.026 0-3.67-1.679-3.67-3.75 0-2.073 1.644-3.752 3.67-3.752 2.027 0 3.669 1.68 3.669 3.751 0 .292-.036.574-.097.847 1.528 1.142 3.291 3.714 2.057 7.734-.778 2.535-.54 5.116.624 6.735.493.688 1.381 1.507 2.807 1.507 1.843 0 3.67-.994 4.442-2.417.285-.525.52-1.32.03-2.123a16.584 16.584 0 01-1.905-4.49 5.41 5.41 0 01-1.776-.608 1.752 1.752 0 01-.892-1.327c-2.425-2.24-3.544-6.277-3.609-6.513-.13-.485.093-.983.51-1.21-.335-3.03.762-4.558 1.424-5.18a.769.769 0 01.314-.77L19.446.11a.601.601 0 01.892.24l.58 1.146c.174.346.02.714-.345.824l-1.375.415c-.349.105-.766-.065-.964-.378-.548.59-1.337 1.905-1.065 4.412.373.073.694.35.802.751.33 1.213 1.285 3.717 2.703 5.22.45-.179.97-.17 1.43.08.299.164.592.246.892.253h.062c.317-.007.627-.099.944-.28.448-.257.96-.28 1.41-.117 1.385-1.508 2.32-3.96 2.645-5.156.108-.399.43-.678.802-.75.273-2.508-.516-3.822-1.065-4.412-.198.312-.615.483-.964.377l-1.375-.414c-.364-.11-.52-.48-.344-.825L25.69.35a.601.601 0 01.891-.24L27.8.922a.77.77 0 01.314.77c.66.622 1.759 2.148 1.424 5.18.417.226.64.724.51 1.21-.064.23-1.15 4.139-3.492 6.399zM10.632 7.27c-.791 0-1.433.655-1.433 1.465s.642 1.466 1.433 1.466 1.433-.656 1.433-1.466c0-.81-.641-1.465-1.433-1.465z"/></mask><g mask="url(#ka)"><path d="M51.515-2.656H18.486L15.1 6.212l3.386 13.326h33.029V-2.656z"/></g></svg><svg viewBox="0 0 42 42" id="engine" xmlns="http://www.w3.org/2000/svg"><path d="M32.977 7.137a3.286 3.286 0 01-3.041-2.051H27.07V2.625h2.866a3.286 3.286 0 013.04-2.05 3.285 3.285 0 013.282 3.28 3.285 3.285 0 01-3.281 3.282zM38.719 14.11a3.26 3.26 0 01-1.498-.364l-3.046 2.54c-.222.183-.5.284-.788.284H27.07v-2.46h5.871l2.672-2.227a3.285 3.285 0 013.106-4.336A3.285 3.285 0 0142 10.828a3.285 3.285 0 01-3.281 3.281zM38.719 24.363a3.286 3.286 0 01-3.041-2.05H27.07v-2.461h8.608a3.286 3.286 0 013.04-2.051A3.285 3.285 0 0142 21.082a3.285 3.285 0 01-3.281 3.281zM34.175 25.879l3.046 2.539a3.26 3.26 0 011.498-.363A3.285 3.285 0 0142 31.335a3.285 3.285 0 01-3.281 3.282 3.285 3.285 0 01-3.106-4.336l-2.672-2.226h-5.87v-2.461h6.316c.288 0 .566.1.788.285zM32.977 35.027a3.285 3.285 0 013.28 3.282 3.285 3.285 0 01-3.28 3.28 3.286 3.286 0 01-3.041-2.05H27.07v-2.46h2.866a3.286 3.286 0 013.04-2.052zM12.305 21.082c0-4.75 3.864-8.613 8.613-8.613 1.32 0 2.572.299 3.691.832v15.562a8.562 8.562 0 01-3.691.832c-4.75 0-8.613-3.864-8.613-8.613z"/><path d="M23.379 42h-4.922c-.68 0-1.23-.55-1.23-1.23v-1.602a18.462 18.462 0 01-6.487-2.687l-1.133 1.132c-.48.48-1.26.48-1.74 0l-3.48-3.48a1.23 1.23 0 010-1.74l1.132-1.133a18.461 18.461 0 01-2.687-6.487H1.23c-.68 0-1.23-.55-1.23-1.23v-4.922c0-.68.55-1.23 1.23-1.23h1.602a18.464 18.464 0 012.687-6.487L4.387 9.77a1.23 1.23 0 010-1.74l3.48-3.48a1.23 1.23 0 011.74 0l1.133 1.132a18.463 18.463 0 016.487-2.687V1.395c0-.68.55-1.23 1.23-1.23h4.922c.68 0 1.23.55 1.23 1.23v9.246a11.023 11.023 0 00-3.691-.633c-6.106 0-11.074 4.968-11.074 11.074s4.968 11.074 11.074 11.074c1.294 0 2.536-.223 3.691-.633v9.247c0 .68-.55 1.23-1.23 1.23z"/></svg><svg viewBox="0 0 24 24" id="facebook" xmlns="http://www.w3.org/2000/svg"><path d="M24 12c0-6.627-5.373-12-12-12S0 5.373 0 12c0 5.99 4.388 10.954 10.125 11.854V15.47H7.078V12h3.047V9.356c0-3.007 1.792-4.668 4.533-4.668 1.312 0 2.686.234 2.686.234v2.953H15.83c-1.491 0-1.956.925-1.956 1.875V12h3.328l-.532 3.469h-2.796v8.385C19.612 22.954 24 17.99 24 12z"/></svg><svg viewBox="0 0 25 24" id="instagam" xmlns="http://www.w3.org/2000/svg"><path d="M12.334 2.16c3.206 0 3.585.015 4.846.071 1.172.052 1.805.249 2.227.413.558.215.96.478 1.378.895.422.422.68.82.895 1.378.164.422.361 1.06.413 2.227.056 1.265.07 1.645.07 4.847 0 3.206-.014 3.586-.07 4.846-.052 1.172-.249 1.805-.413 2.227-.215.558-.478.961-.895 1.378a3.69 3.69 0 01-1.378.895c-.422.165-1.06.361-2.227.413-1.265.056-1.645.07-4.846.07-3.207 0-3.586-.014-4.847-.07-1.172-.052-1.805-.248-2.227-.413a3.71 3.71 0 01-1.378-.895 3.691 3.691 0 01-.895-1.378c-.164-.422-.361-1.06-.413-2.227-.056-1.265-.07-1.645-.07-4.846 0-3.207.014-3.586.07-4.847.052-1.172.249-1.805.413-2.227.215-.558.478-.96.895-1.378.422-.422.82-.68 1.378-.895.422-.164 1.06-.361 2.227-.413 1.26-.056 1.64-.07 4.847-.07zm0-2.16C9.076 0 8.668.014 7.388.07c-1.275.057-2.151.263-2.91.558a5.857 5.857 0 00-2.129 1.388A5.88 5.88 0 00.962 4.139C.666 4.903.46 5.775.404 7.05.348 8.334.334 8.742.334 12s.014 3.666.07 4.945c.056 1.275.262 2.152.558 2.911.309.792.717 1.463 1.387 2.128a5.866 5.866 0 002.124 1.383c.764.296 1.636.502 2.91.558 1.28.056 1.688.07 4.946.07s3.665-.014 4.945-.07c1.275-.056 2.152-.262 2.911-.558a5.866 5.866 0 002.123-1.383 5.866 5.866 0 001.383-2.123c.296-.764.502-1.636.558-2.911.056-1.28.07-1.688.07-4.945 0-3.258-.014-3.666-.07-4.946-.056-1.275-.262-2.151-.558-2.91a5.62 5.62 0 00-1.373-2.133A5.867 5.867 0 0020.194.633C19.43.338 18.558.13 17.284.075 15.998.015 15.59 0 12.334 0z"/><path d="M12.334 5.836A6.166 6.166 0 006.169 12a6.166 6.166 0 006.165 6.164A6.166 6.166 0 0018.498 12a6.166 6.166 0 00-6.165-6.164zm0 10.162a3.999 3.999 0 110-7.998 3.999 3.999 0 010 7.998zM20.18 5.592a1.44 1.44 0 11-2.878 0 1.44 1.44 0 012.878 0z"/></svg><svg viewBox="0 0 2 71" id="line-orange" xmlns="http://www.w3.org/2000/svg"><path d="M1 1v69"/></svg><svg viewBox="0 0 24 24" id="linkedin" xmlns="http://www.w3.org/2000/svg"><path d="M22.223 0H1.772C.792 0 0 .773 0 1.73v20.536C0 23.222.792 24 1.772 24h20.451c.98 0 1.777-.778 1.777-1.73V1.73C24 .773 23.203 0 22.223 0zM7.12 20.452H3.558V8.995H7.12v11.457zM5.34 7.434a2.064 2.064 0 110-4.125 2.063 2.063 0 010 4.125zm15.112 13.018h-3.558v-5.57c0-1.326-.024-3.037-1.852-3.037-1.851 0-2.133 1.449-2.133 2.944v5.663H9.356V8.995h3.413v1.566h.047c.473-.9 1.636-1.852 3.365-1.852 3.605 0 4.27 2.372 4.27 5.457v6.286z"/></svg><svg viewBox="0 0 34 46" id="oil" xmlns="http://www.w3.org/2000/svg"><path d="M33.172 18.193c0-.343-.131-.673-.366-.923L22.024 5.815a1.348 1.348 0 00-.981-.424H7.566c-.384 0-.751.164-1.007.452l-5.39 6.064c-.22.247-.34.566-.34.896v23.763c0 1.035.39 1.98 1.031 2.696a4.027 4.027 0 00-1.032 2.695A4.048 4.048 0 004.871 46H29.13a4.048 4.048 0 004.043-4.043c0-1.034-.39-1.98-1.032-2.695a4.026 4.026 0 001.032-2.696V18.193zM17 37.913a4.048 4.048 0 01-4.043-4.042c0-.555.159-1.567 1.53-3.93a37.168 37.168 0 011.404-2.227 1.348 1.348 0 012.218 0c.029.042.712 1.033 1.404 2.227 1.371 2.363 1.53 3.375 1.53 3.93A4.048 4.048 0 0117 37.914zm9.935-15.899a2.684 2.684 0 01-1.848.733 2.686 2.686 0 01-1.962-.847l-6.19-6.577a2.695 2.695 0 113.925-3.695l6.19 6.576a2.695 2.695 0 01-.115 3.81z"/><path d="M15.652 33.872a1.349 1.349 0 002.696 0c-.012-.413-.572-1.587-1.348-2.894-.776 1.308-1.337 2.482-1.348 2.894zM15.652 0H7.566C6.822 0 6.22.603 6.22 1.348v1.347H17V1.348C17 .603 16.397 0 15.652 0z"/></svg><svg viewBox="0 0 46 46" id="service" xmlns="http://www.w3.org/2000/svg"><path d="M45.855 20.446c-.073-.646-.827-1.133-1.479-1.133-2.107 0-3.978-1.237-4.762-3.151a5.124 5.124 0 011.286-5.687c.494-.452.555-1.21.14-1.735a22.77 22.77 0 00-3.644-3.68 1.28 1.28 0 00-1.748.142c-1.37 1.518-3.833 2.082-5.736 1.288a5.108 5.108 0 01-3.106-4.993 1.276 1.276 0 00-1.13-1.344 22.952 22.952 0 00-5.174-.014 1.28 1.28 0 00-1.139 1.317c.075 2.132-1.189 4.104-3.15 4.907-1.88.768-4.325.208-5.693-1.297a1.282 1.282 0 00-1.736-.145 22.864 22.864 0 00-3.72 3.678 1.28 1.28 0 00.137 1.748 5.097 5.097 0 011.286 5.739c-.794 1.89-2.757 3.109-5.004 3.109-.73-.024-1.249.466-1.33 1.13a23.056 23.056 0 00-.01 5.23c.074.648.85 1.13 1.51 1.13 2.002-.05 3.925 1.19 4.732 3.152.804 1.96.286 4.245-1.286 5.688a1.277 1.277 0 00-.14 1.732 22.85 22.85 0 003.638 3.682 1.279 1.279 0 001.75-.139c1.377-1.522 3.84-2.085 5.734-1.29a5.102 5.102 0 013.113 4.992 1.276 1.276 0 001.128 1.344 22.786 22.786 0 005.175.014 1.28 1.28 0 001.138-1.317c-.077-2.132 1.19-4.103 3.147-4.905 1.893-.773 4.328-.207 5.696 1.296a1.285 1.285 0 001.736.145 22.893 22.893 0 003.72-3.679 1.277 1.277 0 00-.136-1.748 5.096 5.096 0 01-1.289-5.737c.782-1.866 2.672-3.118 4.705-3.118l.285.007c.66.054 1.266-.454 1.346-1.128.203-1.729.205-3.488.01-5.23zM23 36.26c-7.324 0-13.26-5.937-13.26-13.26 0-7.323 5.936-13.26 13.26-13.26 7.323 0 13.26 5.937 13.26 13.26 0 2.486-.686 4.81-1.876 6.799l-5.806-5.806a8.11 8.11 0 00.642-3.175 8.074 8.074 0 00-2.381-5.748 8.075 8.075 0 00-5.748-2.38c-.724 0-1.445.096-2.143.286a.92.92 0 00-.637.641c-.083.313.01.634.255.88 0 0 2.867 2.888 3.826 3.847.1.1.1.34.086.426l-.009.063c-.097 1.055-.283 2.32-.437 2.807l-.061.058-.064.066c-.492.158-1.778.346-2.849.442v-.005l-.048.012a.612.612 0 01-.486-.185c-.998-.998-3.752-3.733-3.752-3.733-.247-.246-.5-.298-.67-.298-.393 0-.746.285-.857.693a8.156 8.156 0 002.098 7.876 8.077 8.077 0 005.748 2.38 8.111 8.111 0 003.175-.642l5.869 5.87A13.193 13.193 0 0123 36.26z"/></svg><svg viewBox="0 0 38 46" id="shield" xmlns="http://www.w3.org/2000/svg"><path d="M22.147 8.086h-6.294a18.436 18.436 0 01-7.185 5.03v8.244c0 6.973 4.037 13.226 10.332 16.089 6.295-2.863 10.332-9.116 10.332-16.089v-8.244a18.422 18.422 0 01-7.185-5.03zm4.095 11.592l-8.386 8.386a1.344 1.344 0 01-1.905 0l-4.193-4.192a1.35 1.35 0 010-1.907 1.35 1.35 0 011.906 0l3.24 3.24 7.433-7.432a1.347 1.347 0 111.905 1.905zm9.82-13.389A10.418 10.418 0 0126.826.72 1.347 1.347 0 0025.635 0h-13.27c-.5 0-.959.277-1.192.719a10.418 10.418 0 01-9.243 5.57c-.744 0-1.348.604-1.348 1.348V21.36a25.606 25.606 0 004.985 15.236 25.602 25.602 0 0013.027 9.341 1.336 1.336 0 00.812 0 25.6 25.6 0 0013.026-9.34 25.606 25.606 0 004.986-15.237V7.637c0-.744-.612-1.348-1.356-1.348zM32.027 21.3c0 8.253-4.91 15.634-12.509 18.803a1.347 1.347 0 01-1.036 0c-7.6-3.169-12.51-10.55-12.51-18.803v-9.193c0-.582.374-1.098.928-1.28 2.86-.94 5.379-2.67 7.284-5.001.256-.314.64-.495 1.044-.495h7.544c.413 0 .9.32 1.044.495a15.748 15.748 0 007.284 5.001c.395.13.696.429.838.802l.005.011c.034.093.058.19.072.29l.003.03c.006.049.01.097.01.147V21.3z"/></svg><svg viewBox="0 0 30 28" id="star" xmlns="http://www.w3.org/2000/svg"><path d="M12.366 1.83c1.137-2.085 4.13-2.085 5.268 0l2.292 4.202a3 3 0 002.081 1.512l4.705.881c2.334.437 3.26 3.284 1.628 5.01l-3.289 3.478a3 3 0 00-.795 2.447l.616 4.747c.306 2.355-2.116 4.115-4.261 3.096l-4.325-2.052a3 3 0 00-2.573 0L9.39 27.203c-2.145 1.019-4.567-.74-4.261-3.096l.616-4.747a3 3 0 00-.795-2.447L1.66 13.435C.03 11.709.954 8.862 3.288 8.425l4.705-.88a3 3 0 002.081-1.513l2.292-4.203z"/></svg><svg viewBox="0 0 31 31" id="time" xmlns="http://www.w3.org/2000/svg"><path d="M26.422 4.546A15.367 15.367 0 0015.484.016a15.367 15.367 0 00-10.938 4.53 15.367 15.367 0 00-4.53 10.938c0 4.132 1.609 8.016 4.53 10.938a15.367 15.367 0 0010.938 4.53c4.132 0 8.017-1.608 10.938-4.53a15.367 15.367 0 004.531-10.938c0-4.132-1.609-8.017-4.53-10.938zm-10.938 23.99c-7.196 0-13.051-5.856-13.051-13.052 0-7.197 5.855-13.052 13.051-13.052 7.197 0 13.052 5.855 13.052 13.052 0 7.196-5.855 13.052-13.052 13.052zm2.317-12.362l4.397 4.375-1.705 1.713-4.45-4.427a2.417 2.417 0 01-1.828-4.408V4.91h2.417v8.447a2.417 2.417 0 011.169 2.817z"/></svg><svg viewBox="0 0 25 20" id="twitter" xmlns="http://www.w3.org/2000/svg"><path d="M8.217 19.75c9.054 0 14.008-7.503 14.008-14.008 0-.21-.005-.426-.014-.637a9.999 9.999 0 002.456-2.55c-.898.4-1.85.66-2.827.774A4.95 4.95 0 0024.006.606a9.897 9.897 0 01-3.126 1.195 4.93 4.93 0 00-8.394 4.49A13.985 13.985 0 012.339 1.15a4.93 4.93 0 001.524 6.57 4.93 4.93 0 01-2.23-.614v.061a4.922 4.922 0 003.95 4.828 4.894 4.894 0 01-2.222.085A4.934 4.934 0 007.96 15.5 9.875 9.875 0 01.667 17.54a13.969 13.969 0 007.55 2.211z"/></svg><svg viewBox="0 0 46 46" id="whell" xmlns="http://www.w3.org/2000/svg"><path d="M23 7.667C14.545 7.667 7.666 14.546 7.666 23c0 8.455 6.88 15.334 15.334 15.334S38.333 31.454 38.333 23 31.455 7.667 23 7.667zm7.844 5.727a.956.956 0 01.674-.315c.223-.025.51.083.697.261a13.344 13.344 0 013.904 6.928.96.96 0 01-.498 1.052c-.938.485-2.051.72-3.118.72-1.391 0-2.709-.399-3.472-1.162-1.625-1.624-.947-4.422 1.813-7.484zM15.155 32.756a.958.958 0 01-.673.316h-.038a.958.958 0 01-.659-.261 13.344 13.344 0 01-3.904-6.93.96.96 0 01.498-1.051c2.16-1.115 5.24-.907 6.59.442 1.623 1.624.945 4.422-1.814 7.484zm1.814-11.878c-.764.763-2.081 1.162-3.472 1.162-1.067 0-2.179-.235-3.118-.72a.96.96 0 01-.498-1.052 13.345 13.345 0 013.904-6.928c.187-.178.463-.288.697-.261.258.01.501.124.673.315 2.761 3.062 3.439 5.86 1.814 7.484zm10.115 14.901a13.431 13.431 0 01-8.168 0 .96.96 0 01-.667-.98c.24-3.448 2.282-6.049 4.75-6.049 2.47 0 4.512 2.6 4.751 6.05a.961.961 0 01-.666.98zM19.166 23A3.838 3.838 0 0123 19.167 3.838 3.838 0 0126.833 23 3.838 3.838 0 0123 26.834 3.838 3.838 0 0119.166 23zm8.584-11.724c-.24 3.448-2.281 6.049-4.75 6.049s-4.511-2.6-4.75-6.049a.957.957 0 01.664-.979 13.444 13.444 0 018.172 0 .957.957 0 01.664.98zM36.12 25.73a13.344 13.344 0 01-3.904 6.93.957.957 0 01-.66.261h-.037a.956.956 0 01-.674-.316c-2.76-3.062-3.438-5.86-1.813-7.484 1.35-1.35 4.428-1.556 6.59-.443a.96.96 0 01.498 1.052z"/><path d="M23 0C10.317 0 0 10.318 0 23s10.317 23 23 23 23-10.318 23-23S35.683 0 23 0zm0 40.25c-9.512 0-17.25-7.739-17.25-17.25S13.488 5.75 23 5.75 40.25 13.489 40.25 23 32.512 40.25 23 40.25z"/></svg></svg>